<?xml version="1.0" encoding="utf-8"?>
<!-- Generator: Adobe Illustrator 25.2.1, SVG Export Plug-In . SVG Version: 6.00 Build 0)  -->
<svg version="1.1" xmlns="http://www.w3.org/2000/svg" xmlns:xlink="http://www.w3.org/1999/xlink" x="0px" y="0px"
	 viewBox="0 0 1920 1080" style="enable-background:new 0 0 1920 1080;" xml:space="preserve">
<style type="text/css">
	.st0{opacity:0.3;fill:#E2E1D4;}
	.st1{opacity:0.45;fill:#D7D9C5;}
	.st2{opacity:0.75;fill:#D7D9C5;}
	.st3{opacity:0.35;fill:#D7D9C5;}
	.st4{fill:#757065;}
	.st5{fill:#A8AC99;}
	.st6{opacity:0.5;}
	.st7{fill:#F5EEEE;}
	.st8{fill:#999B85;}
	.st9{fill:#767676;}
	.st10{fill:#B3BEAE;}
	.st11{fill:#BEC5B8;}
	.st12{fill:#C9D2C1;}
	.st13{fill:#DBCBCE;}
</style>
<g id="圖層_1">
</g>
<g id="圖層_4">
</g>
<g id="圖層_3">
	<path class="st0" d="M1357.1,1703.5c-9.7,155.5,73.7,581.6,716,515.8c397.7-40.7,301-248.7,503.7-346.8
		c225.9-109.4,436.8-193.9,503.6-361c108.1-270.5,109.5-525.4-52.3-698.4c-193.3-206.6-686.4-387.6-1062.5,266
		C1724.3,1498.5,1378.6,1357.9,1357.1,1703.5z"/>
	<path class="st3" d="M1055.8,208.9c133.9,27.8,247.2,164.6,272.2,312.9c2.3,13.7,32.7,208.8-77.8,296.4
		c-33.6,26.7-75.9,32.2-159.1,42.1c-100.3,12-213.4,25.4-357.1-11C619.3,820.3,553,803.5,497.2,737.7c-106-125-64-297.5-61.9-305.6
		c4.6-17.7,46.7-131.2,141.4-153.7c61.3-14.5,84.3,2.7,171.5-9.1c55.8-7.5,64-31.4,130.8-51.2
		C945.1,198.5,1011.3,199.7,1055.8,208.9z"/>
</g>
<g id="圖層_2">
	<path class="st4" d="M1075.4,535l6.8,60.5c0,0.3,0,0.6,0,0.9c-1.8,17.5-15.6,13.8-25.6,6.4c-10.1-7.5-14.9-4.5-23.1-1.9
		s-12.9,32.7-3.7,47.9c8.6,14.2,27,1.5,29.4-0.2c0.2-0.1,0.4-0.3,0.6-0.4c2.9-1.4,22.4-9.9,23.4,8.8c0.9,16.1,0.9,38.4,0.8,46.9
		c0,2-1.5,3.7-3.5,4c-23.8,3.2-161.8,21-182,13c-19.9-7.9-24.7-112.5-25.5-133.8c-0.1-2.1,1.5-4,3.6-4.2l71.3-7.9
		c0.4,0,0.8-0.2,1.2-0.3c3.8-1.7,23.5-11.5,3.5-26.5c-22-16.5-24.7-34.9-8.7-44.2c16-9.2,33.9-16.1,45,1.2c0.1,0.1,0.2,0.3,0.3,0.4
		c1,2,7.8,16.7,1.8,27.6c-6.5,11.7,8.5,10.9,17.1,11c7.2,0,48.5-9.5,62.2-12.8C1072.8,530.9,1075.1,532.6,1075.4,535z"/>
	<path class="st4" d="M1343.1,574.8c-0.4-6.3-5.2-11.4-11.4-12.4l-48.2-7.9c-17.8-2.4-6.7-19.7-4.9-22.4c0.2-0.2,0.3-0.5,0.4-0.8
		c13.3-31.1-14.9-40.1-18.9-41.2c-0.3-0.1-0.6-0.1-0.9-0.2c-34.1-2.6-28.8,33.7-28.5,37.9c0.3,4.3,9.5,18.3-2.9,21.8
		c-10.3,2.9-52.2-3.2-66.2-5.3c-2.5-0.4-4.8,1.4-5.1,3.9l-7.3,60.4c0,0.3-0.1,0.6-0.2,1c-5.8,16.5-18.4,9.8-26.4,0.2
		c-8.1-9.6-13.5-7.8-22.1-7.2s-20.1,28.9-14.7,45.8c5,15.7,25.8,7.8,28.7,6.6c0.2-0.1,0.5-0.2,0.8-0.2c3.3-0.7,24-4.4,20.7,14
		c-2.1,11.8-5.5,26.8-7.9,37.1c-1.5,6.5,2.9,13,9.6,13.9l154.9,20.7c11.8,1.6,23-6,25.9-17.6C1327.7,686,1345.6,609.1,1343.1,574.8z
		"/>
	<g>
		<path class="st4" d="M1160,526.2c-0.2,4.5,3,8.4,7.4,9.1c16,2.4,53.9,7.6,63.6,4.9c12.4-3.5,3.2-17.5,2.9-21.8
			c-0.3-4.3-5.6-40.8,28.9-37.9c0,0,33.9,7.9,19.1,41.8c0,0-14.6,20.2,4.6,22.8l50.1,8.2c4.1,0.7,7.9-2.2,8.4-6.3
			c1-8.2,2.9-23.5,6.5-47.3c5-33.7,7.3-48.3,1.7-87.5c-1.6-11.4-10.2-20.6-21.6-22.9c-12.2-2.5-30.3-6.4-53.6-12.1
			c-36.7-9-78.2-12.7-95.3-13.6c-4.3-0.2-8,3.1-8.1,7.4c-0.6,15.3-1.8,54.4-9.5,53.3c-10.1-1.3-16.6-9.9-24.4-15.2
			c-7.8-5.3-24.7-1.6-28.5,8.1c-3.8,9.7-19.8,34,5.1,51.8c0,0,17.9,6.2,32.3-2.7c14.4-8.9,20.4,3.8,18.5,11.2
			C1168.3,477.7,1160.9,508.6,1160,526.2z"/>
		<g>
			<g>
				<path class="st5" d="M1154.2,518.6c-0.2,4.5,3,8.4,7.4,9.1c16,2.4,53.9,7.6,63.6,4.9c12.4-3.5,3.2-17.5,2.9-21.8
					c-0.3-4.3-5.6-40.8,28.9-37.9c0,0,38.2,9.3,23.4,43.1c0,0-18.9,18.9,0.4,21.5l50.1,8.2c4.1,0.7,7.9-2.2,8.4-6.3
					c1-8.2,2.9-23.5,6.5-47.3c5-33.7,7.3-48.3,1.7-87.5c-1.6-11.4-10.2-20.6-21.6-22.9c-12.2-2.5-30.3-6.4-53.6-12.1
					c-36.7-9-78.2-12.7-95.3-13.6c-4.3-0.2-8,3.1-8.1,7.4c-0.6,15.3-1.8,54.4-9.5,53.3c-10.1-1.3-16.6-9.9-24.4-15.2
					c-7.8-5.3-24.7-1.6-28.5,8.1c-3.8,9.7-19.8,34,5.1,51.8c0,0,17.9,6.2,32.3-2.7s20.4,3.8,18.5,11.2
					C1162.5,470.1,1155.1,501,1154.2,518.6z"/>
			</g>
			<g class="st6">
				<path class="st7" d="M1176.6,361c0.1,0,0.1,0,0.2,0c5.2,0.3,51.8,3,94.4,13.5c24.1,5.9,42.5,9.8,53.7,12.1
					c9.2,1.9,16.3,9.4,17.6,18.7c5.4,38.3,3.4,52-1.6,85.3l-0.1,0.7c-3.5,23.5-5.5,38.8-6.5,47.5c-0.1,1.1-1.1,2-2.2,2
					c-0.1,0-0.2,0-0.4,0l-50.1-8.2l-0.1,0l-0.1,0c-3.3-0.4-4.2-1.3-4.3-1.5c-0.6-1.7,2.8-7.4,6.8-11.5l0.7-0.7l0.4-0.9
					c4.8-11,5.1-21,0.8-29.6c-7.6-15.3-26.8-20.1-27.6-20.3l-0.4-0.1l-0.4,0c-1.4-0.1-2.9-0.2-4.2-0.2c-9.5,0-17,2.9-22.3,8.7
					c-6.7,7.3-9.3,18.7-7.9,33.8c0,0.4,0.1,0.7,0.1,0.9c0.1,1.7,0.7,3.5,1.6,5.7c1,2.8,2.7,7.5,1.7,9.4c-0.3,0.6-1.2,1.1-2.5,1.5
					c-0.8,0.2-2.7,0.6-7.3,0.6c-15.1,0-43-3.9-54.3-5.6c-1.9-0.3-3.3-2-3.2-3.9c0.9-17,8.2-47.4,8.2-47.6c1.3-5.1,0-11-3.2-15.1
					c-2.7-3.5-6.7-5.5-11.2-5.5c0,0,0,0,0,0c-3.6,0-7.6,1.3-11.6,3.8c-4.4,2.7-9.7,4.1-15.8,4.1c-5.5,0-10.1-1.1-11.7-1.6
					c-7.6-5.7-11.2-12.4-10.9-20.5c0.3-7.5,3.7-14.9,6.1-20.3c0.8-1.8,1.5-3.3,2.1-4.7c1.6-4.1,8-7.4,14.6-7.4c2.7,0,5,0.6,6.4,1.6
					c2.1,1.4,4.2,3.2,6.4,5c5.5,4.6,11.7,9.9,20.2,11c0.3,0,0.6,0.1,1,0.1c9.3,0,12.6-13.3,14.1-57l0-1.2
					C1174,362.2,1175.2,361,1176.6,361 M1176.6,356c-4.1,0-7.5,3.3-7.7,7.4c-0.5,15.1-1.7,53.4-9.2,53.4c-0.1,0-0.2,0-0.3,0
					c-10.1-1.3-16.6-9.9-24.4-15.2c-2.4-1.6-5.7-2.4-9.2-2.4c-7.8,0-16.7,3.8-19.2,10.6c-3.8,9.7-19.8,34,5.1,51.8
					c0,0,6.1,2.1,14,2.1c5.7,0,12.4-1.1,18.4-4.8c3.5-2.2,6.5-3.1,9-3.1c7.8,0,10.9,8.7,9.5,14.3c0,0-7.4,30.9-8.4,48.6
					c-0.2,4.5,3,8.4,7.4,9.1c12.9,1.9,39.9,5.7,55,5.7c3.7,0,6.7-0.2,8.6-0.8c12.4-3.5,3.2-17.5,2.9-21.8
					c-0.3-4.1-5.2-38.1,25.1-38.1c1.2,0,2.5,0.1,3.8,0.2c0,0,38.2,9.3,23.4,43.1c0,0-18.9,18.9,0.4,21.5l50.1,8.2
					c0.4,0.1,0.8,0.1,1.2,0.1c3.6,0,6.7-2.7,7.2-6.4c1-8.2,2.9-23.5,6.5-47.3c5-33.7,7.3-48.3,1.7-87.5
					c-1.6-11.4-10.2-20.6-21.6-22.9c-12.2-2.5-30.3-6.4-53.6-12.1c-36.7-9-78.2-12.7-95.3-13.6C1176.9,356,1176.8,356,1176.6,356
					L1176.6,356z"/>
			</g>
		</g>
	</g>
	<g>
		<path class="st8" d="M1339.1,566.6c-0.4-6.3-5.2-11.4-11.4-12.4l-48.2-7.9c-17.8-2.4-6.7-19.7-4.9-22.4c0.2-0.2,0.3-0.5,0.4-0.8
			c13.3-31.1-14.9-40.1-18.9-41.2c-0.3-0.1-0.6-0.1-0.9-0.2c-34.1-2.6-28.8,33.7-28.5,37.9c0.3,4.3,9.5,18.3-2.9,21.8
			c-10.3,2.9-52.2-3.2-66.2-5.3c-2.5-0.4-4.8,1.4-5.1,3.9l-7.3,60.4c0,0.3-0.1,0.6-0.2,1c-5.8,16.5-18.4,9.8-26.4,0.2
			c-8.1-9.6-13.5-7.8-22.1-7.2c-8.6,0.6-20.1,28.9-14.7,45.8c5,15.7,25.8,7.8,28.7,6.6c0.2-0.1,0.5-0.2,0.8-0.2
			c3.3-0.7,24-4.4,20.7,14c-2.1,11.8-5.5,26.8-7.9,37.1c-1.5,6.5,2.9,13,9.6,13.9l154.9,20.7c11.8,1.6,23-6,25.9-17.6
			C1323.7,677.8,1341.5,600.9,1339.1,566.6z"/>
		<g class="st6">
			<path class="st7" d="M1252,486.6c1,0,1.9,0,3,0.1c1,0.3,4.2,1.3,7.8,3.4c4.3,2.5,7.3,5.7,9.1,9.3c2.8,5.8,2.4,13.1-1.3,21.7
				c-7.9,11.7-6,19.2-4.8,21.9c1.4,3.2,4.8,7.2,13.1,8.3l48.1,7.9c4,0.6,6.9,3.9,7.2,7.8c2.4,34.1-16.3,113.8-24.4,146.4
				c-2.1,8.2-9.4,14-17.9,14c-0.8,0-1.6-0.1-2.5-0.2l-154.9-20.7c-1.8-0.2-3.4-1.2-4.4-2.7c-1-1.5-1.4-3.3-0.9-5.1
				c2.5-10.5,5.9-25.5,8-37.4c1.1-6.2,0.1-11.1-3-14.8c-3.2-3.8-8.5-5.9-15.4-5.9c-3.8,0-7.1,0.6-8.3,0.9c-0.6,0.1-1.1,0.3-1.6,0.5
				c-1.1,0.4-6.8,2.7-12.3,2.7c-6.8,0-8.7-3.3-9.6-6.2c-3.1-9.6,0.3-24.1,5.1-32.8c2.5-4.7,4.6-6.2,5.2-6.4c1-0.1,2-0.2,3-0.2
				c1.6-0.1,3.1-0.3,4.4-0.3c3,0,5.9,0.4,10.5,5.9c8.5,10.1,15.9,11.6,19.6,11.6c9.3,0,13.6-8.4,15.3-13.4c0.2-0.6,0.4-1.3,0.5-2
				l7.2-59.8c12.4,1.9,41.6,6.1,57.9,6.1c4.4,0,7.7-0.3,9.9-0.9c4.1-1.2,7.1-3.4,8.7-6.5c3-5.8,0.5-12.8-1.2-17.4
				c-0.4-1.1-0.9-2.5-1-3c0-0.3-0.1-0.6-0.1-1.1c-1.1-12.2,0.7-21,5.4-26.1C1240.4,488.4,1245.3,486.6,1252,486.6 M1252,481.6
				c-30.4,0-25.4,33.9-25.1,38.1c0.3,4.3,9.5,18.3-2.9,21.8c-1.9,0.5-4.9,0.8-8.6,0.8c-16.3,0-46.2-4.3-57.6-6.1
				c-0.2,0-0.5-0.1-0.7-0.1c-2.2,0-4.2,1.7-4.4,3.9l-7.3,60.4c0,0.3-0.1,0.6-0.2,1c-2.5,7.3-6.4,10-10.6,10
				c-5.4,0-11.3-4.5-15.8-9.8c-5.4-6.4-9.6-7.7-14.3-7.7c-2.4,0-4.9,0.3-7.7,0.5c-8.6,0.6-20.1,28.9-14.7,45.8
				c2.4,7.6,8.5,9.6,14.4,9.6c6.4,0,12.8-2.5,14.3-3.1c0.2-0.1,0.5-0.2,0.8-0.2c1.1-0.2,4-0.8,7.3-0.8c6.9,0,15.6,2.3,13.4,14.8
				c-2.1,11.8-5.5,26.8-7.9,37.1c-1.5,6.5,2.9,13,9.6,13.9l154.9,20.7c1.1,0.1,2.1,0.2,3.1,0.2c10.6,0,20.1-7.2,22.7-17.8
				c9.2-36.8,27-113.7,24.6-148c-0.4-6.3-5.2-11.4-11.4-12.4l-48.2-7.9c-17.8-2.4-6.7-19.7-4.9-22.4c0.2-0.2,0.3-0.5,0.4-0.8
				c13.3-31.1-14.9-40.1-18.9-41.2c-0.3-0.1-0.6-0.1-0.9-0.2C1254.2,481.6,1253,481.6,1252,481.6L1252,481.6z"/>
		</g>
	</g>
	<path class="st5" d="M1065.4,528.4l6.8,60.5c0,0.3,0,0.6,0,0.9c-1.8,17.5-15.6,13.8-25.6,6.4c-10.1-7.5-14.9-4.5-23.1-1.9
		c-8.2,2.5-12.9,32.7-3.7,47.9c8.6,14.2,27,1.5,29.4-0.2c0.2-0.1,0.4-0.3,0.6-0.4c2.9-1.4,22.4-9.9,23.4,8.8
		c0.9,16.1,0.9,38.4,0.8,46.9c0,2-1.5,3.7-3.5,4c-23.8,3.2-161.8,21-182,13c-19.9-7.9-24.7-112.5-25.5-133.8c-0.1-2.1,1.5-4,3.6-4.2
		l71.3-7.9c0.4,0,0.8-0.2,1.2-0.3c3.8-1.7,23.5-11.5,3.5-26.5c-22-16.5-24.7-34.9-8.7-44.2c16-9.2,33.9-16.1,45,1.2
		c0.1,0.1,0.2,0.3,0.3,0.4c1,2,7.8,16.7,1.8,27.6c-6.5,11.7,8.5,10.9,17.1,11c7.2,0,48.5-9.5,62.2-12.8
		C1062.8,524.3,1065.1,525.9,1065.4,528.4z"/>
	<g class="st6">
		<path class="st7" d="M960.7,492.9c5.9,0,10.4,2.7,14.1,8.3c2.6,5.2,5.8,15.9,1.9,22.9c-2.6,4.7-2.9,8.8-0.9,12.2
			c3.7,6.2,13.3,6.2,20.4,6.2l0.4,0h0.4c0.4,0,0.9,0,1.3,0l0.1,0h0c7.3,0,41.7-7.8,62.3-12.7l6.7,59.4c-0.8,8-4.1,8-5.6,8
			c-3.2,0-7.7-1.9-12.1-5.2c-5.3-3.9-9.9-5.7-14.7-5.7c-3.7,0-6.8,1-10.2,2.2c-0.9,0.3-1.8,0.6-2.7,0.9c-3.7,1.1-6.7,4.6-8.9,10.3
			c-4.6,12-5,32.7,2.4,45c3.6,5.9,9,9.1,15.8,9.1c9.2,0,18.1-5.9,20.7-7.8c1.1-0.5,5.8-2.6,10-2.6c1.8,0,3.2,0.4,4.1,1.2
			c1.5,1.3,2,4,2.1,6.1c0.9,15.4,0.9,36.6,0.8,45.8c-20.6,2.7-115,14.9-159.4,14.9c-13.1,0-17.7-1.1-19.4-1.7
			c-1.7-0.7-10.3-6.6-16.8-57.9c-3.6-28.5-5.1-58.3-5.5-70.6l70.4-7.8c0.9-0.1,1.8-0.3,2.7-0.7c12.7-5.6,14.9-13.5,15.2-16.6
			c0.7-6.4-2.9-12.6-10.7-18.5c-11.2-8.4-17.4-17.5-16.9-25c0.3-4.4,2.9-8,7.7-10.8C943,497.9,952.7,492.9,960.7,492.9 M960.7,487.9
			c-8.5,0-17.9,4.4-26.7,9.4c-16.1,9.2-13.4,27.7,8.7,44.2c20,15,0.3,24.8-3.5,26.5c-0.4,0.2-0.8,0.3-1.2,0.3l-71.3,7.9
			c-2.1,0.2-3.7,2.1-3.6,4.2c0.8,21.3,5.7,125.9,25.5,133.8c3.7,1.5,11.2,2.1,21.2,2.1c45.3,0,141.3-12.4,160.8-15
			c2-0.3,3.5-2,3.5-4c0.1-8.6,0.1-30.9-0.8-46.9c-0.5-9.5-5.8-12-11.2-12c-5.3,0-10.8,2.4-12.3,3.1c-0.2,0.1-0.4,0.2-0.6,0.4
			c-1.6,1.1-9.9,6.9-17.9,6.9c-4.3,0-8.5-1.7-11.5-6.7c-9.2-15.2-4.5-45.4,3.7-47.9c4.3-1.3,7.7-2.8,11.4-2.8
			c3.3,0,6.9,1.2,11.7,4.7c4.7,3.5,10.3,6.2,15.1,6.2c5.3,0,9.6-3.3,10.5-12.5c0-0.3,0-0.6,0-0.9l-6.8-60.5c-0.2-2.1-2-3.6-4-3.6
			c-0.3,0-0.6,0-0.9,0.1c-13.7,3.2-54.9,12.8-62.2,12.8c0,0,0,0,0,0c-0.4,0-0.8,0-1.3,0c-0.2,0-0.5,0-0.7,0c-8.7,0-21.1-0.1-15.1-11
			c6-10.9-0.8-25.5-1.8-27.6c-0.1-0.2-0.2-0.3-0.3-0.4C974,490.8,967.7,487.9,960.7,487.9L960.7,487.9z"/>
	</g>
	<g>
		<path class="st4" d="M642.8,521.7l56.7-25.5c0,0,21.8-17.8-4.3-26.7s-34.2-25.6-21.8-39.4c12.5-13.7,27.5-25.8,43.4-12.5
			c0,0,13,12.8,10.4,25.9c-2.6,13.1,11.4,7.8,19.7,5.2c6.1-1.9,36.1-19.4,50.9-28.1c4.3-2.5,5.8-8,3.6-12.4
			c-8.1-15.9-17.3-45.7-17.3-45.7c-2.2-7.3-13.8-15.3-21.7-0.2c-7.9,15-26.4,18.8-26.4,18.8c-30.5-2.7-29.1-31.7-30.8-42
			s11-22.1,20.4-21.5s19.4,4.6,28.7,0.7c6.7-2.9-6-28.9-13.7-43.3c-3-5.5-9.3-8.3-15.4-6.7c-23.3,6.2-36.3,9.1-77.1,30.5
			c-9.3,4.9-38,22.7-56.7,29.6c-22.1,8.1-32.8,33.2-23.5,54.8l56.7,131.4C627.6,521.7,635.8,524.9,642.8,521.7z"/>
		<path class="st5" d="M637.5,516.8l56.7-25.5c0,0,21.8-17.8-4.3-26.7s-34.2-25.6-21.8-39.4c12.5-13.7,27.5-25.8,43.4-12.5
			c0,0,13,12.8,10.4,25.9c-2.6,13.1,11.4,7.8,19.7,5.2c6.1-1.9,36.1-19.4,50.9-28.1c4.3-2.5,5.8-8,3.6-12.4
			c-8.1-15.9-17.3-45.7-17.3-45.7c-2.2-7.3-13.8-15.3-21.7-0.2c-7.9,15-26.4,18.8-26.4,18.8c-30.5-2.7-29.1-31.7-30.8-42
			s11-22.1,20.4-21.5s19.4,4.6,28.7,0.7c6.7-2.9-6-28.9-13.7-43.3c-3-5.5-9.3-8.3-15.4-6.7c-23.3,6.2-36.3,9.1-77.1,30.5
			c-9.3,4.9-38,22.7-56.7,29.6c-22.1,8.1-32.8,33.2-23.5,54.8l56.7,131.4C622.3,516.7,630.5,519.9,637.5,516.8z"/>
		<g class="st6">
			<path class="st7" d="M723.4,267.9c3.2,0,6,1.7,7.5,4.5c12.1,22.6,15,33.4,15,36.7c-1.8,0.6-3.8,0.9-6.1,0.9
				c-3.2,0-6.6-0.6-10.2-1.2c-2.9-0.5-6-1-9.1-1.2c-0.3,0-0.7,0-1,0c-6.4,0-13.7,3.8-18.9,10c-4.6,5.5-6.7,11.7-5.7,17.4
				c0.2,1.2,0.4,2.7,0.5,4.5c1.3,12.7,4,39,34.7,41.7l0.7,0.1l0.7-0.1c0.9-0.2,21-4.5,29.9-21.4c1.1-2.2,3.5-5.8,6.4-5.8
				c2.6,0,5.3,2.7,6.1,5.2c0.4,1.2,9.4,30.4,17.6,46.5c1.1,2.1,0.3,4.7-1.7,5.9c-32,18.9-46.8,26.6-49.8,27.6
				c-0.5,0.2-1,0.3-1.6,0.5c-3.5,1.1-7.9,2.5-10.8,2.5c-0.5,0-0.8,0-1-0.1c0-0.4-0.1-1.1,0.2-2.4c3.1-15.6-11.2-29.8-11.8-30.4
				l-0.1-0.1l-0.2-0.1c-5.5-4.6-11.4-6.9-17.5-6.9c-13.1,0-24.4,10.6-32.8,19.9c-6,6.6-8.3,14.4-6.3,21.9
				c2.8,10.7,13.5,19.8,30.2,25.6c5.6,1.9,8.9,4.4,9.3,6.9c0.6,3.6-3.6,8.6-6.2,10.8l-56,25.2c-1.1,0.5-2.3,0.8-3.6,0.8
				c-3.5,0-6.6-2.1-8-5.3l-56.7-131.4c-4-9.2-4-19.4,0-28.6c4-9.2,11.3-16.1,20.7-19.6c14.4-5.3,34-16.6,47-24
				c4.3-2.5,8-4.6,10.3-5.8c38.4-20.1,51.3-23.5,72.8-29.2l3.3-0.9C721.9,268,722.6,267.9,723.4,267.9 M723.4,262.9
				c-1.2,0-2.3,0.1-3.5,0.5c-23.3,6.2-36.3,9.1-77.1,30.5c-9.3,4.9-38,22.7-56.7,29.6c-22.1,8.1-32.8,33.2-23.5,54.8l56.7,131.4
				c2.2,5.2,7.3,8.3,12.6,8.3c1.9,0,3.8-0.4,5.6-1.2l56.7-25.5c0,0,21.8-17.8-4.3-26.7c-26-8.9-34.2-25.6-21.8-39.4
				c8.6-9.5,18.5-18.3,29.1-18.3c4.7,0,9.5,1.7,14.3,5.8c0,0,13,12.8,10.4,25.9c-1.3,6.5,1.5,8.5,5.7,8.5c4.2,0,9.8-2,13.9-3.3
				c6.1-1.9,36.1-19.4,50.9-28.1c4.3-2.5,5.8-8,3.6-12.4c-8.1-15.9-17.3-45.7-17.3-45.7c-1.3-4.3-5.8-8.8-10.9-8.8
				c-3.6,0-7.5,2.3-10.8,8.5c-7.9,15-26.4,18.8-26.4,18.8c-30.5-2.7-29.1-31.7-30.8-42c-1.7-10,10.3-21.5,19.7-21.5
				c0.2,0,0.5,0,0.7,0c6.4,0.4,13,2.4,19.6,2.4c3.1,0,6.2-0.4,9.2-1.7c6.7-2.9-6-28.9-13.7-43.3
				C732.9,265.6,728.3,262.9,723.4,262.9L723.4,262.9z"/>
		</g>
	</g>
	<g>
		<g>
			<path class="st8" d="M795.2,880.4c0,2-0.5,3.6-1.5,4.8c-1,1.2-2.4,1.8-4.1,2.1c1.9,0.7,3.7,1.4,5.5,2.1c1.7,0.7,3.5,1.6,5.3,2.5
				c1.2,0.7,1.9,1.6,2.2,2.7c0.3,1,0,2-0.7,2.9c-0.6,0.8-1.4,1.3-2.3,1.5c-1,0.2-1.9-0.1-3-0.7c-1.9-1-3.9-2-6-2.9
				c-2.1-0.9-4.5-1.8-7.3-2.6c-1.2-0.3-2.1-0.8-2.7-1.7c-0.6-0.8-0.6-1.9-0.1-3.2l0.1-0.4h-19.2c0.6,0.9,0.8,1.8,0.6,3
				c-0.2,1.1-1,1.9-2.3,2.5c-1.3,0.6-2.6,1.1-3.7,1.6c-1.2,0.5-2.4,0.9-3.5,1.2c-1.2,0.3-2.4,0.7-3.6,1c-1.2,0.3-2.6,0.6-4,1
				c-1.5,0.3-2.7,0.3-3.4-0.1c-0.7-0.4-1.3-1.2-1.6-2.3c-0.4-1.3-0.2-2.3,0.4-3.1c0.7-0.7,1.6-1.3,2.9-1.6c2-0.5,4-0.9,5.7-1.4
				c1.8-0.5,3.4-1,4.9-1.6c-4.6-0.1-6.9-2.4-6.9-7v-26.2c0-4.7,2.3-7,7-7h12l1.2-3.5h-23.5c-1.2,0-2.1-0.3-2.6-1
				c-0.5-0.7-0.8-1.6-0.8-2.8c0-1.2,0.2-2.1,0.7-2.8c0.5-0.6,1.4-0.9,2.7-0.9H798c1.3,0,2.2,0.3,2.7,0.9c0.5,0.6,0.8,1.5,0.8,2.8
				c0,2.5-1.2,3.7-3.5,3.7h-23.1c-0.1,0.5-0.3,1-0.5,1.5c-0.2,0.5-0.4,1.2-0.7,2h14.2c2.3,0,4.1,0.6,5.4,1.8
				c1.3,1.2,1.9,2.9,1.9,5.2V880.4z M754.3,857.8h33.3v-1.3c0-1.4-0.6-2-1.8-2H756c-1.1,0-1.7,0.7-1.7,2V857.8z M754.3,869h33.3
				v-4.1h-33.3V869z M787.6,876.2h-33.3v1.8c0,0.9,0.1,1.5,0.4,1.8c0.2,0.3,0.7,0.4,1.3,0.4h29.7c0.7,0,1.2-0.2,1.4-0.5
				c0.3-0.4,0.4-0.9,0.4-1.6V876.2z"/>
			<path class="st8" d="M841.1,850.5c0.5-0.9,1-1.9,1.4-3.1c0.5-1.2,0.9-2.2,1.3-3h-22.4c-1.6,0-2.6-0.3-3.1-0.9
				c-0.5-0.6-0.7-1.5-0.7-2.7c0-1.1,0.2-2.1,0.7-2.9c0.5-0.8,1.5-1.2,3.1-1.2h55.5c1.6,0,2.6,0.3,3.1,1c0.5,0.7,0.7,1.6,0.7,2.7
				c0,1.2-0.2,2.1-0.7,2.9c-0.5,0.7-1.5,1.1-3.1,1.1h-24.2c-0.4,0.9-0.7,1.9-1.1,3.1c-0.4,1.2-0.8,2.2-1.3,3h19.9
				c1.5,0,2.7,0.1,3.7,0.2c1,0.2,1.7,0.5,2.3,1s0.9,1.2,1.2,2.2c0.2,1,0.3,2.2,0.3,3.9V889c0,1.5-0.1,2.7-0.3,3.7s-0.6,1.8-1.1,2.4
				c-0.5,0.6-1.3,1-2.3,1.3c-1,0.2-2.2,0.4-3.8,0.4H828c-1.5,0-2.7-0.1-3.6-0.3s-1.7-0.6-2.3-1.2c-0.6-0.6-1-1.4-1.2-2.4
				c-0.2-1-0.3-2.3-0.3-3.9v-31.3c0-1.6,0.1-2.9,0.3-3.8c0.2-1,0.5-1.7,1.1-2.2c0.5-0.5,1.3-0.9,2.3-1c1-0.2,2.2-0.2,3.8-0.2H841.1z
				 M828.3,887.8c0,0.5,0.1,0.9,0.2,1.1c0.1,0.2,0.5,0.3,1.2,0.3h5.4v-31.1h-5.4c-0.5,0-0.9,0.1-1.1,0.2c-0.2,0.1-0.3,0.5-0.3,1.1
				V887.8z M842.8,863.4h12.4v-5.3h-12.4V863.4z M842.8,876h12.4v-5.6h-12.4V876z M842.8,889.2h12.4V883h-12.4V889.2z M863,858.1
				v31.1h5.4c0.7,0,1.1-0.1,1.3-0.3c0.2-0.2,0.2-0.6,0.2-1.2v-28.1c0-0.6-0.1-1-0.2-1.2c-0.1-0.2-0.5-0.3-1.2-0.3H863z"/>
			<path class="st8" d="M920,870.7c0.4,1.5,0.5,2.6,0.3,3.4c-0.2,0.8-0.8,1.4-1.8,1.8c-1.2,0.4-2.1,0.4-2.8,0.1
				c-0.6-0.4-1.1-1.2-1.5-2.5c-2.1,0.5-4.4,0.9-6.9,1.2c-2.4,0.4-4.8,0.7-7,1c-1.4,0.1-2.5,0-3.3-0.5c-0.8-0.5-1.4-1.1-1.7-1.9
				c-0.3-0.8-0.3-1.7-0.1-2.7c0.2-1,0.7-1.9,1.5-2.8c2.4-2.9,4.5-5.4,6.3-7.5l-3.1,0.1c-1.2,0-2.2-0.2-3-0.6
				c-0.8-0.5-1.3-1.1-1.7-1.9c-0.3-0.8-0.4-1.6-0.3-2.6c0.1-1,0.5-1.9,1.1-2.7c1.1-1.6,2.1-3,3-4.4c0.9-1.3,1.8-2.6,2.6-3.8
				c0.8-1.2,1.6-2.5,2.4-3.8c0.8-1.3,1.7-2.8,2.6-4.4c0.7-1.2,1.5-2.1,2.4-2.6c1-0.5,1.9-0.5,2.8,0c1.2,0.6,1.9,1.5,2,2.4
				c0.2,1-0.2,2.4-1.1,4.1c-1,2-2.1,3.9-3.3,5.6c-1.2,1.7-2.3,3.3-3.5,4.8c-0.5,0.8-0.8,1.3-0.7,1.6c0.1,0.3,0.5,0.4,1.3,0.4
				l2.1-0.1c0.5-0.8,1.1-1.7,1.7-2.6c0.6-0.9,1.3-1.9,1.9-2.9c1-1.5,1.9-2.4,2.8-2.8c0.9-0.4,1.9-0.2,3,0.6c0.7,0.5,1.1,1.2,1.2,2.4
				c0.1,1.1-0.3,2.3-1.1,3.6c-1.6,2.4-3.3,4.9-5.2,7.4c-1.9,2.5-4,5.1-6.2,8c-1.1,1.5-1,2,0.3,1.8c1-0.2,1.8-0.4,2.5-0.5
				s1.6-0.3,2.5-0.4c0,0,0-0.1,0-0.1c0,0,0-0.1,0-0.1c-0.9-2.7-0.5-4.4,1.3-5.2c1.2-0.5,2.2-0.6,2.8-0.1c0.7,0.5,1.3,1.5,1.8,3
				c0.2,0.6,0.4,1.2,0.5,1.7c0.2,0.5,0.3,1,0.5,1.5c0.1,0.5,0.3,1,0.4,1.6C919.7,869.4,919.8,870,920,870.7z M897.2,879.2
				c1.2-0.5,2.1-0.5,2.8-0.1c0.7,0.4,1.3,1.4,1.8,2.9c0.5,1.6,0.9,3.3,1.3,4.9c0.4,1.7,0.7,3.4,1.1,5.1c0.3,1.7,0.3,3,0,3.7
				c-0.3,0.8-1,1.3-2.2,1.6c-1.2,0.3-2.1,0.1-2.7-0.4c-0.6-0.5-1.1-1.7-1.5-3.5c-0.3-1.6-0.6-3.1-1-4.6c-0.4-1.5-0.7-2.9-1.2-4.4
				c-0.5-1.6-0.6-2.8-0.4-3.5C895.4,880.3,896.1,879.7,897.2,879.2z M906.1,878.1c2-0.8,3.4,0.1,4.3,2.7c0.4,1.3,0.8,2.8,1.3,4.5
				c0.5,1.7,0.8,3.4,1.1,5c0.3,1.6,0.3,2.8,0,3.5c-0.2,0.7-1,1.2-2.1,1.5c-1,0.2-1.9,0.1-2.5-0.4c-0.6-0.5-1.1-1.6-1.4-3.2
				c-0.4-1.8-0.7-3.3-1-4.5c-0.3-1.2-0.7-2.6-1.1-3.9c-0.4-1.3-0.5-2.4-0.4-3.2C904.4,879.2,905,878.5,906.1,878.1z M914.2,876.7
				c0.8-0.4,1.6-0.4,2.3-0.1s1.3,1.1,1.7,2.4c0.4,1.4,0.8,2.7,1.2,4c0.4,1.3,0.7,2.7,0.9,4c0.2,1.2,0.2,2.1,0.2,2.9
				c0.2,0,0.4-0.1,0.6-0.1c0.2,0,0.4-0.1,0.6-0.1h1.6v-46.5c-0.1-2.9,0.3-5,1.3-6.1c0.9-1.1,2.6-1.7,5-1.7h19.2
				c1.3,0,2.3,0.1,3.1,0.4c0.8,0.2,1.5,0.7,1.9,1.3c0.5,0.6,0.8,1.4,1,2.4c0.2,1,0.3,2.2,0.3,3.7v46.4h0.7c1.3,0,2.3,0.4,2.9,1.1
				c0.6,0.7,0.9,1.7,0.9,2.9c0,1.2-0.3,2.2-0.9,2.8c-0.6,0.6-1.5,1-2.9,1h-33.3c-1.3,0-2.4-0.3-3.2-0.8c-0.8-0.5-1.2-1.4-1.3-2.8
				c0-0.3,0-0.6,0-0.8c0-0.2,0-0.5,0.1-0.7c-1,0.2-1.8,0.1-2.4-0.5c-0.7-0.5-1.1-1.6-1.3-3.1c-0.2-0.9-0.4-1.9-0.7-3.2
				c-0.3-1.2-0.7-2.5-1.1-3.8c-0.5-1.5-0.6-2.6-0.4-3.4C912.8,877.6,913.3,877.1,914.2,876.7z M931.1,854.3h16.6v-9.4
				c0-0.8-0.1-1.2-0.3-1.4c-0.2-0.2-0.7-0.3-1.4-0.3h-13.3c-0.7,0-1.2,0.1-1.3,0.2c-0.2,0.2-0.2,0.5-0.2,1.1V854.3z M931.1,872.2
				h16.6v-10.8h-16.6V872.2z M931.1,889.7h16.6v-10.4h-16.6V889.7z"/>
			<path class="st8" d="M1000.4,864.1c0,1.5-0.3,2.6-1,3.2s-1.6,0.9-2.8,0.9c-1.1,0-2.1-0.3-2.8-0.9c-0.7-0.6-1.1-1.7-1.1-3.2v-5.7
				h-5c-0.4,1.7-1,3.3-1.8,4.7c-0.8,1.4-1.9,2.7-3.1,4c-1.3,1.3-2.6,2-3.9,2c-1.3,0-2.2-0.5-2.9-1.6s-0.9-2-0.7-2.7
				c0.2-0.7,0.9-1.6,2.2-2.6c0.8-0.6,1.4-1.2,1.8-1.8c0.5-0.5,0.8-1.2,1-2h-3.9c-1.4,0-2.4-0.2-2.9-0.6s-0.8-1.3-0.8-2.8
				c0-1.5,0.3-2.4,0.8-2.7c0.5-0.4,1.5-0.5,2.9-0.5h16.2v-2.8h-9.2c-1.5,0-2.6-0.1-3.5-0.2c-0.9-0.2-1.6-0.5-2.1-1
				c-0.5-0.5-0.9-1.2-1.1-2c-0.2-0.9-0.3-2.1-0.3-3.5v-2.3c0-1.5,0.3-2.6,0.9-3.3c0.6-0.7,1.5-1.1,2.9-1.1c1.3,0,2.2,0.3,2.9,0.9
				c0.6,0.6,1,1.7,1,3.2v1.7c0,0.5,0.1,0.8,0.2,0.9c0.1,0.1,0.5,0.2,1.1,0.2h7.5v-5c0-1.5,0.4-2.6,1.1-3.2c0.7-0.6,1.7-0.9,2.8-0.9
				c1.2,0,2.2,0.3,2.8,0.9c0.6,0.6,1,1.7,1,3.2V864.1z M977.7,876.7c-1.3,0-2.3-0.3-2.8-0.9c-0.6-0.6-0.8-1.4-0.8-2.5
				c0-1.2,0.2-2,0.7-2.6c0.5-0.5,1.5-0.8,2.9-0.8h23.9c0,0,0-0.1,0-0.1c0,0,0-0.1,0-0.1c-0.5-1-0.7-1.9-0.5-2.7
				c0.2-0.7,0.9-1.4,2.1-2.1c1-0.5,2-0.6,3-0.4s1.8,0.8,2.3,1.7c0.2,0.4,0.5,0.9,0.8,1.5s0.6,1.3,1,2.2h23.6c1.5,0,2.5,0.3,2.9,0.8
				c0.5,0.5,0.7,1.4,0.7,2.6c0,1-0.2,1.9-0.7,2.5c-0.5,0.6-1.5,0.9-2.9,0.9h-2.7c0.1,0.1,0.2,0.2,0.3,0.2c0.1,0.1,0.2,0.1,0.3,0.2
				c0.5,0.5,0.8,0.9,1.1,1.3c0.2,0.4,0.4,0.8,0.3,1.2c0,0.4-0.2,0.9-0.6,1.4c-0.4,0.5-0.9,1.1-1.6,1.8c-0.6,0.5-1.5,1.1-2.6,1.9
				s-2.4,1.6-3.9,2.5c1.3,0.8,2.6,1.5,3.9,2.2c1.4,0.7,2.8,1.3,4.2,1.8c1.8,0.6,2.9,1.3,3.4,1.9c0.5,0.6,0.6,1.6,0.1,3
				c-0.4,1.4-1.1,2.2-1.9,2.5c-0.9,0.3-2.3,0.1-4.3-0.7c-5.2-2-9.9-4.8-14.1-8.3c-4.2-3.5-8-7.8-11.4-12.9h-1
				c-2.8,2.6-6.2,5.2-10.2,7.8v4.6c0,1,0.1,1.5,0.4,1.7c0.3,0.2,0.8,0.1,1.7,0c1-0.2,1.9-0.4,2.6-0.5c0.7-0.2,1.5-0.4,2.2-0.6
				s1.5-0.5,2.3-0.8c0.8-0.3,1.8-0.7,2.9-1.2c2.9-1.3,4.9-0.9,5.9,1.2c0.5,1.2,0.6,2.2,0.3,3s-1.4,1.5-3.3,2.3
				c-1.4,0.6-2.7,1.1-3.8,1.5c-1.1,0.4-2.2,0.8-3.4,1.1c-1.1,0.3-2.3,0.6-3.6,0.8c-1.3,0.2-2.8,0.5-4.6,0.7
				c-2.6,0.4-4.5,0.1-5.5-0.7c-1.1-0.8-1.6-2.3-1.6-4.5v-4.5c-1.1,0.5-2.2,1-3.3,1.4s-2.2,0.9-3.2,1.3c-1.6,0.6-2.9,0.7-3.8,0.4
				c-1-0.3-1.6-1.1-2-2.5c-0.3-1.1-0.2-2,0.3-2.8c0.5-0.7,1.5-1.4,3.1-1.9c2.8-0.9,5.5-2,8.1-3.4c2.6-1.4,5.1-2.8,7.4-4.4H977.7z
				 M1036,860.5c0,1.3-0.3,2.2-0.8,2.7c-0.5,0.5-1.5,0.7-3,0.7h-24.8c-1.5,0-2.5-0.2-3-0.7c-0.5-0.5-0.7-1.4-0.7-2.8
				c0-1.5,0.2-2.4,0.7-2.8c0.5-0.4,1.5-0.6,3-0.6h8.5v-8.5h-9.8c-1.3,0-2.3-0.2-2.9-0.6s-1-1.3-1-2.8c0-1.3,0.3-2.2,0.9-2.7
				c0.6-0.5,1.6-0.7,3-0.7h9.8v-4.2c0-1.6,0.4-2.7,1.1-3.3c0.7-0.6,1.7-0.8,2.8-0.8c1.2,0,2.1,0.3,2.8,0.8c0.7,0.6,1,1.7,1,3.3v4.2
				h9.9c1.3,0,2.3,0.2,2.9,0.6c0.6,0.4,1,1.3,1,2.7c0,1.4-0.3,2.3-1,2.8c-0.6,0.5-1.6,0.7-2.9,0.7h-9.9v8.5h8.6c1.5,0,2.4,0.2,3,0.6
				C1035.7,858.1,1036,859,1036,860.5z M1025.3,878.1c0.3-0.3,0.6-0.6,0.9-0.8c0.3-0.2,0.6-0.4,0.9-0.6h-14.3
				c0.9,1.1,1.8,2.2,2.8,3.2c1,1,2,2,3,3c1.4-0.8,2.7-1.7,4-2.6C1023.7,879.5,1024.7,878.7,1025.3,878.1z"/>
			<path class="st8" d="M1079.3,836.6c0-1.5,0.3-2.5,1-3.1s1.7-0.8,3.2-0.8c1.4,0,2.4,0.3,3.1,0.8s1,1.6,1,3.1v8.6h16.7
				c1.7,0,3,0.1,4,0.2c1,0.2,1.8,0.5,2.4,1.1s1,1.3,1.2,2.3c0.2,1,0.3,2.3,0.3,3.9v20.6c0,1.5-0.1,2.7-0.3,3.7
				c-0.2,1-0.6,1.7-1.1,2.3c-0.6,0.5-1.4,0.9-2.4,1.2c-1,0.2-2.4,0.3-4,0.3h-16.8v14c0,1.2-0.3,2.1-0.9,2.8
				c-0.6,0.7-1.7,1.1-3.3,1.1c-1.8,0-2.9-0.3-3.4-0.9c-0.5-0.6-0.7-1.6-0.7-3.1v-13.9H1063c-1.6,0-3-0.1-4-0.3
				c-1-0.2-1.8-0.6-2.4-1.2c-0.6-0.6-0.9-1.3-1.1-2.3c-0.2-1-0.3-2.2-0.3-3.6v-20.7c0-1.5,0.1-2.8,0.3-3.8c0.2-1,0.6-1.7,1.1-2.3
				c0.6-0.5,1.4-0.9,2.4-1.1c1-0.2,2.3-0.3,4-0.3h16.4V836.6z M1065,853.2c-0.7,0-1.1,0.1-1.3,0.3c-0.2,0.2-0.3,0.8-0.3,1.7v15
				c0,1.1,0.1,1.8,0.3,2c0.2,0.2,0.7,0.4,1.5,0.4h14.1v-19.4H1065z M1087.6,853.2v19.4h14.5c0.9,0,1.5-0.1,1.6-0.4
				c0.2-0.3,0.3-0.9,0.3-2v-15c0-0.9-0.1-1.4-0.4-1.7c-0.3-0.2-1-0.4-2-0.4H1087.6z"/>
			<path class="st8" d="M1131.6,883.2c0-1.3,0.4-2.4,1.3-3.3c0.9-0.9,2-1.3,3.3-1.3c1.3,0,2.4,0.4,3.3,1.3c0.9,0.9,1.3,2,1.3,3.3
				c0,1.3-0.4,2.4-1.3,3.3s-2,1.3-3.3,1.3c-1.3,0-2.4-0.4-3.3-1.3C1132.1,885.6,1131.6,884.5,1131.6,883.2z"/>
			<path class="st8" d="M1159,883.2c0-1.3,0.4-2.4,1.3-3.3c0.9-0.9,2-1.3,3.3-1.3c1.3,0,2.4,0.4,3.3,1.3c0.9,0.9,1.3,2,1.3,3.3
				c0,1.3-0.4,2.4-1.3,3.3s-2,1.3-3.3,1.3c-1.3,0-2.4-0.4-3.3-1.3C1159.5,885.6,1159,884.5,1159,883.2z"/>
			<path class="st8" d="M1186.4,883.2c0-1.3,0.4-2.4,1.3-3.3c0.9-0.9,2-1.3,3.3-1.3c1.3,0,2.4,0.4,3.3,1.3c0.9,0.9,1.3,2,1.3,3.3
				c0,1.3-0.4,2.4-1.3,3.3s-2,1.3-3.3,1.3c-1.3,0-2.4-0.4-3.3-1.3C1186.9,885.6,1186.4,884.5,1186.4,883.2z"/>
		</g>
		<g>
			<path class="st7" d="M793.2,878.4c0,2-0.5,3.6-1.5,4.8c-1,1.2-2.4,1.8-4.1,2.1c1.9,0.7,3.7,1.4,5.5,2.1c1.7,0.7,3.5,1.6,5.3,2.5
				c1.2,0.7,1.9,1.6,2.2,2.7c0.3,1,0,2-0.7,2.9c-0.6,0.8-1.4,1.3-2.3,1.5c-1,0.2-1.9-0.1-3-0.7c-1.9-1-3.9-2-6-2.9
				c-2.1-0.9-4.5-1.8-7.3-2.6c-1.2-0.3-2.1-0.8-2.7-1.7c-0.6-0.8-0.6-1.9-0.1-3.2l0.1-0.4h-19.2c0.6,0.9,0.8,1.8,0.6,3
				c-0.2,1.1-1,1.9-2.3,2.5c-1.3,0.6-2.6,1.1-3.7,1.6c-1.2,0.5-2.4,0.9-3.5,1.2c-1.2,0.3-2.4,0.7-3.6,1c-1.2,0.3-2.6,0.6-4,1
				c-1.5,0.3-2.7,0.3-3.4-0.1c-0.7-0.4-1.3-1.2-1.6-2.3c-0.4-1.3-0.2-2.3,0.4-3.1c0.7-0.7,1.6-1.3,2.9-1.6c2-0.5,4-0.9,5.7-1.4
				c1.8-0.5,3.4-1,4.9-1.6c-4.6-0.1-6.9-2.4-6.9-7v-26.2c0-4.7,2.3-7,7-7h12l1.2-3.5h-23.5c-1.2,0-2.1-0.3-2.6-1
				c-0.5-0.7-0.8-1.6-0.8-2.8c0-1.2,0.2-2.1,0.7-2.8c0.5-0.6,1.4-0.9,2.7-0.9H796c1.3,0,2.2,0.3,2.7,0.9c0.5,0.6,0.8,1.5,0.8,2.8
				c0,2.5-1.2,3.7-3.5,3.7h-23.1c-0.1,0.5-0.3,1-0.5,1.5c-0.2,0.5-0.4,1.2-0.7,2h14.2c2.3,0,4.1,0.6,5.4,1.8
				c1.3,1.2,1.9,2.9,1.9,5.2V878.4z M752.3,855.8h33.3v-1.3c0-1.4-0.6-2-1.8-2H754c-1.1,0-1.7,0.7-1.7,2V855.8z M752.3,867h33.3
				v-4.1h-33.3V867z M785.6,874.2h-33.3v1.8c0,0.9,0.1,1.5,0.4,1.8c0.2,0.3,0.7,0.4,1.3,0.4h29.7c0.7,0,1.2-0.2,1.4-0.5
				c0.3-0.4,0.4-0.9,0.4-1.6V874.2z"/>
			<path class="st7" d="M839.1,848.5c0.5-0.9,1-1.9,1.4-3.1c0.5-1.2,0.9-2.2,1.3-3h-22.4c-1.6,0-2.6-0.3-3.1-0.9
				c-0.5-0.6-0.7-1.5-0.7-2.7c0-1.1,0.2-2.1,0.7-2.9c0.5-0.8,1.5-1.2,3.1-1.2h55.5c1.6,0,2.6,0.3,3.1,1c0.5,0.7,0.7,1.6,0.7,2.7
				c0,1.2-0.2,2.1-0.7,2.9c-0.5,0.7-1.5,1.1-3.1,1.1h-24.2c-0.4,0.9-0.7,1.9-1.1,3.1c-0.4,1.2-0.8,2.2-1.3,3h19.9
				c1.5,0,2.7,0.1,3.7,0.2c1,0.2,1.7,0.5,2.3,1s0.9,1.2,1.2,2.2c0.2,1,0.3,2.2,0.3,3.9V887c0,1.5-0.1,2.7-0.3,3.7s-0.6,1.8-1.1,2.4
				c-0.5,0.6-1.3,1-2.3,1.3c-1,0.2-2.2,0.4-3.8,0.4H826c-1.5,0-2.7-0.1-3.6-0.3s-1.7-0.6-2.3-1.2c-0.6-0.6-1-1.4-1.2-2.4
				c-0.2-1-0.3-2.3-0.3-3.9v-31.3c0-1.6,0.1-2.9,0.3-3.8c0.2-1,0.5-1.7,1.1-2.2c0.5-0.5,1.3-0.9,2.3-1c1-0.2,2.2-0.2,3.8-0.2H839.1z
				 M826.3,885.8c0,0.5,0.1,0.9,0.2,1.1c0.1,0.2,0.5,0.3,1.2,0.3h5.4v-31.1h-5.4c-0.5,0-0.9,0.1-1.1,0.2c-0.2,0.1-0.3,0.5-0.3,1.1
				V885.8z M840.8,861.4h12.4v-5.3h-12.4V861.4z M840.8,874h12.4v-5.6h-12.4V874z M840.8,887.2h12.4V881h-12.4V887.2z M861,856.1
				v31.1h5.4c0.7,0,1.1-0.1,1.3-0.3c0.2-0.2,0.2-0.6,0.2-1.2v-28.1c0-0.6-0.1-1-0.2-1.2c-0.1-0.2-0.5-0.3-1.2-0.3H861z"/>
			<path class="st7" d="M918,868.7c0.4,1.5,0.5,2.6,0.3,3.4c-0.2,0.8-0.8,1.4-1.8,1.8c-1.2,0.4-2.1,0.4-2.8,0.1
				c-0.6-0.4-1.1-1.2-1.5-2.5c-2.1,0.5-4.4,0.9-6.9,1.2c-2.4,0.4-4.8,0.7-7,1c-1.4,0.1-2.5,0-3.3-0.5c-0.8-0.5-1.4-1.1-1.7-1.9
				c-0.3-0.8-0.3-1.7-0.1-2.7c0.2-1,0.7-1.9,1.5-2.8c2.4-2.9,4.5-5.4,6.3-7.5l-3.1,0.1c-1.2,0-2.2-0.2-3-0.6
				c-0.8-0.5-1.3-1.1-1.7-1.9c-0.3-0.8-0.4-1.6-0.3-2.6c0.1-1,0.5-1.9,1.1-2.7c1.1-1.6,2.1-3,3-4.4c0.9-1.3,1.8-2.6,2.6-3.8
				c0.8-1.2,1.6-2.5,2.4-3.8c0.8-1.3,1.7-2.8,2.6-4.4c0.7-1.2,1.5-2.1,2.4-2.6c1-0.5,1.9-0.5,2.8,0c1.2,0.6,1.9,1.5,2,2.4
				c0.2,1-0.2,2.4-1.1,4.1c-1,2-2.1,3.9-3.3,5.6c-1.2,1.7-2.3,3.3-3.5,4.8c-0.5,0.8-0.8,1.3-0.7,1.6c0.1,0.3,0.5,0.4,1.3,0.4
				l2.1-0.1c0.5-0.8,1.1-1.7,1.7-2.6c0.6-0.9,1.3-1.9,1.9-2.9c1-1.5,1.9-2.4,2.8-2.8c0.9-0.4,1.9-0.2,3,0.6c0.7,0.5,1.1,1.2,1.2,2.4
				c0.1,1.1-0.3,2.3-1.1,3.6c-1.6,2.4-3.3,4.9-5.2,7.4c-1.9,2.5-4,5.1-6.2,8c-1.1,1.5-1,2,0.3,1.8c1-0.2,1.8-0.4,2.5-0.5
				s1.6-0.3,2.5-0.4c0,0,0-0.1,0-0.1c0,0,0-0.1,0-0.1c-0.9-2.7-0.5-4.4,1.3-5.2c1.2-0.5,2.2-0.6,2.8-0.1c0.7,0.5,1.3,1.5,1.8,3
				c0.2,0.6,0.4,1.2,0.5,1.7c0.2,0.5,0.3,1,0.5,1.5c0.1,0.5,0.3,1,0.4,1.6C917.7,867.4,917.8,868,918,868.7z M895.2,877.2
				c1.2-0.5,2.1-0.5,2.8-0.1c0.7,0.4,1.3,1.4,1.8,2.9c0.5,1.6,0.9,3.3,1.3,4.9c0.4,1.7,0.7,3.4,1.1,5.1c0.3,1.7,0.3,3,0,3.7
				c-0.3,0.8-1,1.3-2.2,1.6c-1.2,0.3-2.1,0.1-2.7-0.4c-0.6-0.5-1.1-1.7-1.5-3.5c-0.3-1.6-0.6-3.1-1-4.6c-0.4-1.5-0.7-2.9-1.2-4.4
				c-0.5-1.6-0.6-2.8-0.4-3.5C893.4,878.3,894.1,877.7,895.2,877.2z M904.1,876.1c2-0.8,3.4,0.1,4.3,2.7c0.4,1.3,0.8,2.8,1.3,4.5
				c0.5,1.7,0.8,3.4,1.1,5c0.3,1.6,0.3,2.8,0,3.5c-0.2,0.7-1,1.2-2.1,1.5c-1,0.2-1.9,0.1-2.5-0.4c-0.6-0.5-1.1-1.6-1.4-3.2
				c-0.4-1.8-0.7-3.3-1-4.5c-0.3-1.2-0.7-2.6-1.1-3.9c-0.4-1.3-0.5-2.4-0.4-3.2C902.4,877.2,903,876.5,904.1,876.1z M912.2,874.7
				c0.8-0.4,1.6-0.4,2.3-0.1s1.3,1.1,1.7,2.4c0.4,1.4,0.8,2.7,1.2,4c0.4,1.3,0.7,2.7,0.9,4c0.2,1.2,0.2,2.1,0.2,2.9
				c0.2,0,0.4-0.1,0.6-0.1c0.2,0,0.4-0.1,0.6-0.1h1.6v-46.5c-0.1-2.9,0.3-5,1.3-6.1c0.9-1.1,2.6-1.7,5-1.7h19.2
				c1.3,0,2.3,0.1,3.1,0.4c0.8,0.2,1.5,0.7,1.9,1.3c0.5,0.6,0.8,1.4,1,2.4c0.2,1,0.3,2.2,0.3,3.7v46.4h0.7c1.3,0,2.3,0.4,2.9,1.1
				c0.6,0.7,0.9,1.7,0.9,2.9c0,1.2-0.3,2.2-0.9,2.8c-0.6,0.6-1.5,1-2.9,1h-33.3c-1.3,0-2.4-0.3-3.2-0.8c-0.8-0.5-1.2-1.4-1.3-2.8
				c0-0.3,0-0.6,0-0.8c0-0.2,0-0.5,0.1-0.7c-1,0.2-1.8,0.1-2.4-0.5c-0.7-0.5-1.1-1.6-1.3-3.1c-0.2-0.9-0.4-1.9-0.7-3.2
				c-0.3-1.2-0.7-2.5-1.1-3.8c-0.5-1.5-0.6-2.6-0.4-3.4C910.8,875.6,911.3,875.1,912.2,874.7z M929.1,852.3h16.6v-9.4
				c0-0.8-0.1-1.2-0.3-1.4c-0.2-0.2-0.7-0.3-1.4-0.3h-13.3c-0.7,0-1.2,0.1-1.3,0.2c-0.2,0.2-0.2,0.5-0.2,1.1V852.3z M929.1,870.2
				h16.6v-10.8h-16.6V870.2z M929.1,887.7h16.6v-10.4h-16.6V887.7z"/>
			<path class="st7" d="M998.4,862.1c0,1.5-0.3,2.6-1,3.2s-1.6,0.9-2.8,0.9c-1.1,0-2.1-0.3-2.8-0.9c-0.7-0.6-1.1-1.7-1.1-3.2v-5.7
				h-5c-0.4,1.7-1,3.3-1.8,4.7c-0.8,1.4-1.9,2.7-3.1,4c-1.3,1.3-2.6,2-3.9,2c-1.3,0-2.2-0.5-2.9-1.6s-0.9-2-0.7-2.7
				c0.2-0.7,0.9-1.6,2.2-2.6c0.8-0.6,1.4-1.2,1.8-1.8c0.5-0.5,0.8-1.2,1-2h-3.9c-1.4,0-2.4-0.2-2.9-0.6s-0.8-1.3-0.8-2.8
				c0-1.5,0.3-2.4,0.8-2.7c0.5-0.4,1.5-0.5,2.9-0.5h16.2v-2.8h-9.2c-1.5,0-2.6-0.1-3.5-0.2c-0.9-0.2-1.6-0.5-2.1-1
				c-0.5-0.5-0.9-1.2-1.1-2c-0.2-0.9-0.3-2.1-0.3-3.5v-2.3c0-1.5,0.3-2.6,0.9-3.3c0.6-0.7,1.5-1.1,2.9-1.1c1.3,0,2.2,0.3,2.9,0.9
				c0.6,0.6,1,1.7,1,3.2v1.7c0,0.5,0.1,0.8,0.2,0.9c0.1,0.1,0.5,0.2,1.1,0.2h7.5v-5c0-1.5,0.4-2.6,1.1-3.2c0.7-0.6,1.7-0.9,2.8-0.9
				c1.2,0,2.2,0.3,2.8,0.9c0.6,0.6,1,1.7,1,3.2V862.1z M975.7,874.7c-1.3,0-2.3-0.3-2.8-0.9c-0.6-0.6-0.8-1.4-0.8-2.5
				c0-1.2,0.2-2,0.7-2.6c0.5-0.5,1.5-0.8,2.9-0.8h23.9c0,0,0-0.1,0-0.1c0,0,0-0.1,0-0.1c-0.5-1-0.7-1.9-0.5-2.7
				c0.2-0.7,0.9-1.4,2.1-2.1c1-0.5,2-0.6,3-0.4s1.8,0.8,2.3,1.7c0.2,0.4,0.5,0.9,0.8,1.5s0.6,1.3,1,2.2h23.6c1.5,0,2.5,0.3,2.9,0.8
				c0.5,0.5,0.7,1.4,0.7,2.6c0,1-0.2,1.9-0.7,2.5c-0.5,0.6-1.5,0.9-2.9,0.9h-2.7c0.1,0.1,0.2,0.2,0.3,0.2c0.1,0.1,0.2,0.1,0.3,0.2
				c0.5,0.5,0.8,0.9,1.1,1.3c0.2,0.4,0.4,0.8,0.3,1.2c0,0.4-0.2,0.9-0.6,1.4c-0.4,0.5-0.9,1.1-1.6,1.8c-0.6,0.5-1.5,1.1-2.6,1.9
				s-2.4,1.6-3.9,2.5c1.3,0.8,2.6,1.5,3.9,2.2c1.4,0.7,2.8,1.3,4.2,1.8c1.8,0.6,2.9,1.3,3.4,1.9c0.5,0.6,0.6,1.6,0.1,3
				c-0.4,1.4-1.1,2.2-1.9,2.5c-0.9,0.3-2.3,0.1-4.3-0.7c-5.2-2-9.9-4.8-14.1-8.3c-4.2-3.5-8-7.8-11.4-12.9h-1
				c-2.8,2.6-6.2,5.2-10.2,7.8v4.6c0,1,0.1,1.5,0.4,1.7c0.3,0.2,0.8,0.1,1.7,0c1-0.2,1.9-0.4,2.6-0.5c0.7-0.2,1.5-0.4,2.2-0.6
				s1.5-0.5,2.3-0.8c0.8-0.3,1.8-0.7,2.9-1.2c2.9-1.3,4.9-0.9,5.9,1.2c0.5,1.2,0.6,2.2,0.3,3s-1.4,1.5-3.3,2.3
				c-1.4,0.6-2.7,1.1-3.8,1.5c-1.1,0.4-2.2,0.8-3.4,1.1c-1.1,0.3-2.3,0.6-3.6,0.8c-1.3,0.2-2.8,0.5-4.6,0.7
				c-2.6,0.4-4.5,0.1-5.5-0.7c-1.1-0.8-1.6-2.3-1.6-4.5v-4.5c-1.1,0.5-2.2,1-3.3,1.4s-2.2,0.9-3.2,1.3c-1.6,0.6-2.9,0.7-3.8,0.4
				c-1-0.3-1.6-1.1-2-2.5c-0.3-1.1-0.2-2,0.3-2.8c0.5-0.7,1.5-1.4,3.1-1.9c2.8-0.9,5.5-2,8.1-3.4c2.6-1.4,5.1-2.8,7.4-4.4H975.7z
				 M1034,858.5c0,1.3-0.3,2.2-0.8,2.7c-0.5,0.5-1.5,0.7-3,0.7h-24.8c-1.5,0-2.5-0.2-3-0.7c-0.5-0.5-0.7-1.4-0.7-2.8
				c0-1.5,0.2-2.4,0.7-2.8c0.5-0.4,1.5-0.6,3-0.6h8.5v-8.5h-9.8c-1.3,0-2.3-0.2-2.9-0.6s-1-1.3-1-2.8c0-1.3,0.3-2.2,0.9-2.7
				c0.6-0.5,1.6-0.7,3-0.7h9.8v-4.2c0-1.6,0.4-2.7,1.1-3.3c0.7-0.6,1.7-0.8,2.8-0.8c1.2,0,2.1,0.3,2.8,0.8c0.7,0.6,1,1.7,1,3.3v4.2
				h9.9c1.3,0,2.3,0.2,2.9,0.6c0.6,0.4,1,1.3,1,2.7c0,1.4-0.3,2.3-1,2.8c-0.6,0.5-1.6,0.7-2.9,0.7h-9.9v8.5h8.6c1.5,0,2.4,0.2,3,0.6
				C1033.7,856.1,1034,857,1034,858.5z M1023.3,876.1c0.3-0.3,0.6-0.6,0.9-0.8c0.3-0.2,0.6-0.4,0.9-0.6h-14.3
				c0.9,1.1,1.8,2.2,2.8,3.2c1,1,2,2,3,3c1.4-0.8,2.7-1.7,4-2.6C1021.7,877.5,1022.7,876.7,1023.3,876.1z"/>
			<path class="st7" d="M1077.3,834.6c0-1.5,0.3-2.5,1-3.1s1.7-0.8,3.2-0.8c1.4,0,2.4,0.3,3.1,0.8s1,1.6,1,3.1v8.6h16.7
				c1.7,0,3,0.1,4,0.2c1,0.2,1.8,0.5,2.4,1.1s1,1.3,1.2,2.3c0.2,1,0.3,2.3,0.3,3.9v20.6c0,1.5-0.1,2.7-0.3,3.7
				c-0.2,1-0.6,1.7-1.1,2.3c-0.6,0.5-1.4,0.9-2.4,1.2c-1,0.2-2.4,0.3-4,0.3h-16.8v14c0,1.2-0.3,2.1-0.9,2.8
				c-0.6,0.7-1.7,1.1-3.3,1.1c-1.8,0-2.9-0.3-3.4-0.9c-0.5-0.6-0.7-1.6-0.7-3.1v-13.9H1061c-1.6,0-3-0.1-4-0.3
				c-1-0.2-1.8-0.6-2.4-1.2c-0.6-0.6-0.9-1.3-1.1-2.3c-0.2-1-0.3-2.2-0.3-3.6v-20.7c0-1.5,0.1-2.8,0.3-3.8c0.2-1,0.6-1.7,1.1-2.3
				c0.6-0.5,1.4-0.9,2.4-1.1c1-0.2,2.3-0.3,4-0.3h16.4V834.6z M1063,851.2c-0.7,0-1.1,0.1-1.3,0.3c-0.2,0.2-0.3,0.8-0.3,1.7v15
				c0,1.1,0.1,1.8,0.3,2c0.2,0.2,0.7,0.4,1.5,0.4h14.1v-19.4H1063z M1085.6,851.2v19.4h14.5c0.9,0,1.5-0.1,1.6-0.4
				c0.2-0.3,0.3-0.9,0.3-2v-15c0-0.9-0.1-1.4-0.4-1.7c-0.3-0.2-1-0.4-2-0.4H1085.6z"/>
			<path class="st7" d="M1129.6,881.2c0-1.3,0.4-2.4,1.3-3.3c0.9-0.9,2-1.3,3.3-1.3c1.3,0,2.4,0.4,3.3,1.3c0.9,0.9,1.3,2,1.3,3.3
				c0,1.3-0.4,2.4-1.3,3.3s-2,1.3-3.3,1.3c-1.3,0-2.4-0.4-3.3-1.3C1130.1,883.6,1129.6,882.5,1129.6,881.2z"/>
			<path class="st7" d="M1157,881.2c0-1.3,0.4-2.4,1.3-3.3c0.9-0.9,2-1.3,3.3-1.3c1.3,0,2.4,0.4,3.3,1.3c0.9,0.9,1.3,2,1.3,3.3
				c0,1.3-0.4,2.4-1.3,3.3s-2,1.3-3.3,1.3c-1.3,0-2.4-0.4-3.3-1.3C1157.5,883.6,1157,882.5,1157,881.2z"/>
			<path class="st7" d="M1184.4,881.2c0-1.3,0.4-2.4,1.3-3.3c0.9-0.9,2-1.3,3.3-1.3c1.3,0,2.4,0.4,3.3,1.3c0.9,0.9,1.3,2,1.3,3.3
				c0,1.3-0.4,2.4-1.3,3.3s-2,1.3-3.3,1.3c-1.3,0-2.4-0.4-3.3-1.3C1184.9,883.6,1184.4,882.5,1184.4,881.2z"/>
		</g>
		<g>
			<path class="st9" d="M790.2,877.4c0,2-0.5,3.6-1.5,4.8c-1,1.2-2.4,1.8-4.1,2.1c1.9,0.7,3.7,1.4,5.5,2.1c1.7,0.7,3.5,1.6,5.3,2.5
				c1.2,0.7,1.9,1.6,2.2,2.7c0.3,1,0,2-0.7,2.9c-0.6,0.8-1.4,1.3-2.3,1.5c-1,0.2-1.9-0.1-3-0.7c-1.9-1-3.9-2-6-2.9
				c-2.1-0.9-4.5-1.8-7.3-2.6c-1.2-0.3-2.1-0.8-2.7-1.7c-0.6-0.8-0.6-1.9-0.1-3.2l0.1-0.4h-19.2c0.6,0.9,0.8,1.8,0.6,3
				c-0.2,1.1-1,1.9-2.3,2.5c-1.3,0.6-2.6,1.1-3.7,1.6c-1.2,0.5-2.4,0.9-3.5,1.2c-1.2,0.3-2.4,0.7-3.6,1c-1.2,0.3-2.6,0.6-4,1
				c-1.5,0.3-2.7,0.3-3.4-0.1c-0.7-0.4-1.3-1.2-1.6-2.3c-0.4-1.3-0.2-2.3,0.4-3.1c0.7-0.7,1.6-1.3,2.9-1.6c2-0.5,4-0.9,5.7-1.4
				c1.8-0.5,3.4-1,4.9-1.6c-4.6-0.1-6.9-2.4-6.9-7v-26.2c0-4.7,2.3-7,7-7h12l1.2-3.5h-23.5c-1.2,0-2.1-0.3-2.6-1
				c-0.5-0.7-0.8-1.6-0.8-2.8c0-1.2,0.2-2.1,0.7-2.8c0.5-0.6,1.4-0.9,2.7-0.9H793c1.3,0,2.2,0.3,2.7,0.9c0.5,0.6,0.8,1.5,0.8,2.8
				c0,2.5-1.2,3.7-3.5,3.7h-23.1c-0.1,0.5-0.3,1-0.5,1.5c-0.2,0.5-0.4,1.2-0.7,2h14.2c2.3,0,4.1,0.6,5.4,1.8
				c1.3,1.2,1.9,2.9,1.9,5.2V877.4z M749.3,854.8h33.3v-1.3c0-1.4-0.6-2-1.8-2H751c-1.1,0-1.7,0.7-1.7,2V854.8z M749.3,866h33.3
				v-4.1h-33.3V866z M782.6,873.2h-33.3v1.8c0,0.9,0.1,1.5,0.4,1.8c0.2,0.3,0.7,0.4,1.3,0.4h29.7c0.7,0,1.2-0.2,1.4-0.5
				c0.3-0.4,0.4-0.9,0.4-1.6V873.2z"/>
			<path class="st9" d="M836.1,847.5c0.5-0.9,1-1.9,1.4-3.1c0.5-1.2,0.9-2.2,1.3-3h-22.4c-1.6,0-2.6-0.3-3.1-0.9
				c-0.5-0.6-0.7-1.5-0.7-2.7c0-1.1,0.2-2.1,0.7-2.9c0.5-0.8,1.5-1.2,3.1-1.2h55.5c1.6,0,2.6,0.3,3.1,1c0.5,0.7,0.7,1.6,0.7,2.7
				c0,1.2-0.2,2.1-0.7,2.9c-0.5,0.7-1.5,1.1-3.1,1.1h-24.2c-0.4,0.9-0.7,1.9-1.1,3.1c-0.4,1.2-0.8,2.2-1.3,3h19.9
				c1.5,0,2.7,0.1,3.7,0.2c1,0.2,1.7,0.5,2.3,1s0.9,1.2,1.2,2.2c0.2,1,0.3,2.2,0.3,3.9V886c0,1.5-0.1,2.7-0.3,3.7s-0.6,1.8-1.1,2.4
				c-0.5,0.6-1.3,1-2.3,1.3c-1,0.2-2.2,0.4-3.8,0.4H823c-1.5,0-2.7-0.1-3.6-0.3s-1.7-0.6-2.3-1.2c-0.6-0.6-1-1.4-1.2-2.4
				c-0.2-1-0.3-2.3-0.3-3.9v-31.3c0-1.6,0.1-2.9,0.3-3.8c0.2-1,0.5-1.7,1.1-2.2c0.5-0.5,1.3-0.9,2.3-1c1-0.2,2.2-0.2,3.8-0.2H836.1z
				 M823.3,884.8c0,0.5,0.1,0.9,0.2,1.1c0.1,0.2,0.5,0.3,1.2,0.3h5.4v-31.1h-5.4c-0.5,0-0.9,0.1-1.1,0.2c-0.2,0.1-0.3,0.5-0.3,1.1
				V884.8z M837.8,860.4h12.4v-5.3h-12.4V860.4z M837.8,873h12.4v-5.6h-12.4V873z M837.8,886.2h12.4V880h-12.4V886.2z M858,855.1
				v31.1h5.4c0.7,0,1.1-0.1,1.3-0.3c0.2-0.2,0.2-0.6,0.2-1.2v-28.1c0-0.6-0.1-1-0.2-1.2c-0.1-0.2-0.5-0.3-1.2-0.3H858z"/>
			<path class="st9" d="M915,867.7c0.4,1.5,0.5,2.6,0.3,3.4c-0.2,0.8-0.8,1.4-1.8,1.8c-1.2,0.4-2.1,0.4-2.8,0.1
				c-0.6-0.4-1.1-1.2-1.5-2.5c-2.1,0.5-4.4,0.9-6.9,1.2c-2.4,0.4-4.8,0.7-7,1c-1.4,0.1-2.5,0-3.3-0.5c-0.8-0.5-1.4-1.1-1.7-1.9
				c-0.3-0.8-0.3-1.7-0.1-2.7c0.2-1,0.7-1.9,1.5-2.8c2.4-2.9,4.5-5.4,6.3-7.5l-3.1,0.1c-1.2,0-2.2-0.2-3-0.6
				c-0.8-0.5-1.3-1.1-1.7-1.9c-0.3-0.8-0.4-1.6-0.3-2.6c0.1-1,0.5-1.9,1.1-2.7c1.1-1.6,2.1-3,3-4.4c0.9-1.3,1.8-2.6,2.6-3.8
				c0.8-1.2,1.6-2.5,2.4-3.8c0.8-1.3,1.7-2.8,2.6-4.4c0.7-1.2,1.5-2.1,2.4-2.6c1-0.5,1.9-0.5,2.8,0c1.2,0.6,1.9,1.5,2,2.4
				c0.2,1-0.2,2.4-1.1,4.1c-1,2-2.1,3.9-3.3,5.6c-1.2,1.7-2.3,3.3-3.5,4.8c-0.5,0.8-0.8,1.3-0.7,1.6c0.1,0.3,0.5,0.4,1.3,0.4
				l2.1-0.1c0.5-0.8,1.1-1.7,1.7-2.6c0.6-0.9,1.3-1.9,1.9-2.9c1-1.5,1.9-2.4,2.8-2.8c0.9-0.4,1.9-0.2,3,0.6c0.7,0.5,1.1,1.2,1.2,2.4
				c0.1,1.1-0.3,2.3-1.1,3.6c-1.6,2.4-3.3,4.9-5.2,7.4c-1.9,2.5-4,5.1-6.2,8c-1.1,1.5-1,2,0.3,1.8c1-0.2,1.8-0.4,2.5-0.5
				s1.6-0.3,2.5-0.4c0,0,0-0.1,0-0.1c0,0,0-0.1,0-0.1c-0.9-2.7-0.5-4.4,1.3-5.2c1.2-0.5,2.2-0.6,2.8-0.1c0.7,0.5,1.3,1.5,1.8,3
				c0.2,0.6,0.4,1.2,0.5,1.7c0.2,0.5,0.3,1,0.5,1.5c0.1,0.5,0.3,1,0.4,1.6C914.7,866.4,914.8,867,915,867.7z M892.2,876.2
				c1.2-0.5,2.1-0.5,2.8-0.1c0.7,0.4,1.3,1.4,1.8,2.9c0.5,1.6,0.9,3.3,1.3,4.9c0.4,1.7,0.7,3.4,1.1,5.1c0.3,1.7,0.3,3,0,3.7
				c-0.3,0.8-1,1.3-2.2,1.6c-1.2,0.3-2.1,0.1-2.7-0.4c-0.6-0.5-1.1-1.7-1.5-3.5c-0.3-1.6-0.6-3.1-1-4.6c-0.4-1.5-0.7-2.9-1.2-4.4
				c-0.5-1.6-0.6-2.8-0.4-3.5C890.4,877.3,891.1,876.7,892.2,876.2z M901.1,875.1c2-0.8,3.4,0.1,4.3,2.7c0.4,1.3,0.8,2.8,1.3,4.5
				c0.5,1.7,0.8,3.4,1.1,5c0.3,1.6,0.3,2.8,0,3.5c-0.2,0.7-1,1.2-2.1,1.5c-1,0.2-1.9,0.1-2.5-0.4c-0.6-0.5-1.1-1.6-1.4-3.2
				c-0.4-1.8-0.7-3.3-1-4.5c-0.3-1.2-0.7-2.6-1.1-3.9c-0.4-1.3-0.5-2.4-0.4-3.2C899.4,876.2,900,875.5,901.1,875.1z M909.2,873.7
				c0.8-0.4,1.6-0.4,2.3-0.1s1.3,1.1,1.7,2.4c0.4,1.4,0.8,2.7,1.2,4c0.4,1.3,0.7,2.7,0.9,4c0.2,1.2,0.2,2.1,0.2,2.9
				c0.2,0,0.4-0.1,0.6-0.1c0.2,0,0.4-0.1,0.6-0.1h1.6v-46.5c-0.1-2.9,0.3-5,1.3-6.1c0.9-1.1,2.6-1.7,5-1.7h19.2
				c1.3,0,2.3,0.1,3.1,0.4c0.8,0.2,1.5,0.7,1.9,1.3c0.5,0.6,0.8,1.4,1,2.4c0.2,1,0.3,2.2,0.3,3.7v46.4h0.7c1.3,0,2.3,0.4,2.9,1.1
				c0.6,0.7,0.9,1.7,0.9,2.9c0,1.2-0.3,2.2-0.9,2.8c-0.6,0.6-1.5,1-2.9,1h-33.3c-1.3,0-2.4-0.3-3.2-0.8c-0.8-0.5-1.2-1.4-1.3-2.8
				c0-0.3,0-0.6,0-0.8c0-0.2,0-0.5,0.1-0.7c-1,0.2-1.8,0.1-2.4-0.5c-0.7-0.5-1.1-1.6-1.3-3.1c-0.2-0.9-0.4-1.9-0.7-3.2
				c-0.3-1.2-0.7-2.5-1.1-3.8c-0.5-1.5-0.6-2.6-0.4-3.4C907.8,874.6,908.3,874.1,909.2,873.7z M926.1,851.3h16.6v-9.4
				c0-0.8-0.1-1.2-0.3-1.4c-0.2-0.2-0.7-0.3-1.4-0.3h-13.3c-0.7,0-1.2,0.1-1.3,0.2c-0.2,0.2-0.2,0.5-0.2,1.1V851.3z M926.1,869.2
				h16.6v-10.8h-16.6V869.2z M926.1,886.7h16.6v-10.4h-16.6V886.7z"/>
			<path class="st9" d="M995.4,861.1c0,1.5-0.3,2.6-1,3.2s-1.6,0.9-2.8,0.9c-1.1,0-2.1-0.3-2.8-0.9c-0.7-0.6-1.1-1.7-1.1-3.2v-5.7
				h-5c-0.4,1.7-1,3.3-1.8,4.7c-0.8,1.4-1.9,2.7-3.1,4c-1.3,1.3-2.6,2-3.9,2c-1.3,0-2.2-0.5-2.9-1.6s-0.9-2-0.7-2.7
				c0.2-0.7,0.9-1.6,2.2-2.6c0.8-0.6,1.4-1.2,1.8-1.8c0.5-0.5,0.8-1.2,1-2h-3.9c-1.4,0-2.4-0.2-2.9-0.6s-0.8-1.3-0.8-2.8
				c0-1.5,0.3-2.4,0.8-2.7c0.5-0.4,1.5-0.5,2.9-0.5h16.2v-2.8h-9.2c-1.5,0-2.6-0.1-3.5-0.2c-0.9-0.2-1.6-0.5-2.1-1
				c-0.5-0.5-0.9-1.2-1.1-2c-0.2-0.9-0.3-2.1-0.3-3.5v-2.3c0-1.5,0.3-2.6,0.9-3.3c0.6-0.7,1.5-1.1,2.9-1.1c1.3,0,2.2,0.3,2.9,0.9
				c0.6,0.6,1,1.7,1,3.2v1.7c0,0.5,0.1,0.8,0.2,0.9c0.1,0.1,0.5,0.2,1.1,0.2h7.5v-5c0-1.5,0.4-2.6,1.1-3.2c0.7-0.6,1.7-0.9,2.8-0.9
				c1.2,0,2.2,0.3,2.8,0.9c0.6,0.6,1,1.7,1,3.2V861.1z M972.7,873.7c-1.3,0-2.3-0.3-2.8-0.9c-0.6-0.6-0.8-1.4-0.8-2.5
				c0-1.2,0.2-2,0.7-2.6c0.5-0.5,1.5-0.8,2.9-0.8h23.9c0,0,0-0.1,0-0.1c0,0,0-0.1,0-0.1c-0.5-1-0.7-1.9-0.5-2.7
				c0.2-0.7,0.9-1.4,2.1-2.1c1-0.5,2-0.6,3-0.4s1.8,0.8,2.3,1.7c0.2,0.4,0.5,0.9,0.8,1.5s0.6,1.3,1,2.2h23.6c1.5,0,2.5,0.3,2.9,0.8
				c0.5,0.5,0.7,1.4,0.7,2.6c0,1-0.2,1.9-0.7,2.5c-0.5,0.6-1.5,0.9-2.9,0.9h-2.7c0.1,0.1,0.2,0.2,0.3,0.2c0.1,0.1,0.2,0.1,0.3,0.2
				c0.5,0.5,0.8,0.9,1.1,1.3c0.2,0.4,0.4,0.8,0.3,1.2c0,0.4-0.2,0.9-0.6,1.4c-0.4,0.5-0.9,1.1-1.6,1.8c-0.6,0.5-1.5,1.1-2.6,1.9
				s-2.4,1.6-3.9,2.5c1.3,0.8,2.6,1.5,3.9,2.2c1.4,0.7,2.8,1.3,4.2,1.8c1.8,0.6,2.9,1.3,3.4,1.9c0.5,0.6,0.6,1.6,0.1,3
				c-0.4,1.4-1.1,2.2-1.9,2.5c-0.9,0.3-2.3,0.1-4.3-0.7c-5.2-2-9.9-4.8-14.1-8.3c-4.2-3.5-8-7.8-11.4-12.9h-1
				c-2.8,2.6-6.2,5.2-10.2,7.8v4.6c0,1,0.1,1.5,0.4,1.7c0.3,0.2,0.8,0.1,1.7,0c1-0.2,1.9-0.4,2.6-0.5c0.7-0.2,1.5-0.4,2.2-0.6
				s1.5-0.5,2.3-0.8c0.8-0.3,1.8-0.7,2.9-1.2c2.9-1.3,4.9-0.9,5.9,1.2c0.5,1.2,0.6,2.2,0.3,3s-1.4,1.5-3.3,2.3
				c-1.4,0.6-2.7,1.1-3.8,1.5c-1.1,0.4-2.2,0.8-3.4,1.1c-1.1,0.3-2.3,0.6-3.6,0.8c-1.3,0.2-2.8,0.5-4.6,0.7
				c-2.6,0.4-4.5,0.1-5.5-0.7c-1.1-0.8-1.6-2.3-1.6-4.5v-4.5c-1.1,0.5-2.2,1-3.3,1.4s-2.2,0.9-3.2,1.3c-1.6,0.6-2.9,0.7-3.8,0.4
				c-1-0.3-1.6-1.1-2-2.5c-0.3-1.1-0.2-2,0.3-2.8c0.5-0.7,1.5-1.4,3.1-1.9c2.8-0.9,5.5-2,8.1-3.4c2.6-1.4,5.1-2.8,7.4-4.4H972.7z
				 M1031,857.5c0,1.3-0.3,2.2-0.8,2.7c-0.5,0.5-1.5,0.7-3,0.7h-24.8c-1.5,0-2.5-0.2-3-0.7c-0.5-0.5-0.7-1.4-0.7-2.8
				c0-1.5,0.2-2.4,0.7-2.8c0.5-0.4,1.5-0.6,3-0.6h8.5v-8.5h-9.8c-1.3,0-2.3-0.2-2.9-0.6s-1-1.3-1-2.8c0-1.3,0.3-2.2,0.9-2.7
				c0.6-0.5,1.6-0.7,3-0.7h9.8v-4.2c0-1.6,0.4-2.7,1.1-3.3c0.7-0.6,1.7-0.8,2.8-0.8c1.2,0,2.1,0.3,2.8,0.8c0.7,0.6,1,1.7,1,3.3v4.2
				h9.9c1.3,0,2.3,0.2,2.9,0.6c0.6,0.4,1,1.3,1,2.7c0,1.4-0.3,2.3-1,2.8c-0.6,0.5-1.6,0.7-2.9,0.7h-9.9v8.5h8.6c1.5,0,2.4,0.2,3,0.6
				C1030.7,855.1,1031,856,1031,857.5z M1020.3,875.1c0.3-0.3,0.6-0.6,0.9-0.8c0.3-0.2,0.6-0.4,0.9-0.6h-14.3
				c0.9,1.1,1.8,2.2,2.8,3.2c1,1,2,2,3,3c1.4-0.8,2.7-1.7,4-2.6C1018.7,876.5,1019.7,875.7,1020.3,875.1z"/>
			<path class="st9" d="M1074.3,833.6c0-1.5,0.3-2.5,1-3.1s1.7-0.8,3.2-0.8c1.4,0,2.4,0.3,3.1,0.8s1,1.6,1,3.1v8.6h16.7
				c1.7,0,3,0.1,4,0.2c1,0.2,1.8,0.5,2.4,1.1s1,1.3,1.2,2.3c0.2,1,0.3,2.3,0.3,3.9v20.6c0,1.5-0.1,2.7-0.3,3.7
				c-0.2,1-0.6,1.7-1.1,2.3c-0.6,0.5-1.4,0.9-2.4,1.2c-1,0.2-2.4,0.3-4,0.3h-16.8v14c0,1.2-0.3,2.1-0.9,2.8
				c-0.6,0.7-1.7,1.1-3.3,1.1c-1.8,0-2.9-0.3-3.4-0.9c-0.5-0.6-0.7-1.6-0.7-3.1v-13.9H1058c-1.6,0-3-0.1-4-0.3
				c-1-0.2-1.8-0.6-2.4-1.2c-0.6-0.6-0.9-1.3-1.1-2.3c-0.2-1-0.3-2.2-0.3-3.6v-20.7c0-1.5,0.1-2.8,0.3-3.8c0.2-1,0.6-1.7,1.1-2.3
				c0.6-0.5,1.4-0.9,2.4-1.1c1-0.2,2.3-0.3,4-0.3h16.4V833.6z M1060,850.2c-0.7,0-1.1,0.1-1.3,0.3c-0.2,0.2-0.3,0.8-0.3,1.7v15
				c0,1.1,0.1,1.8,0.3,2c0.2,0.2,0.7,0.4,1.5,0.4h14.1v-19.4H1060z M1082.6,850.2v19.4h14.5c0.9,0,1.5-0.1,1.6-0.4
				c0.2-0.3,0.3-0.9,0.3-2v-15c0-0.9-0.1-1.4-0.4-1.7c-0.3-0.2-1-0.4-2-0.4H1082.6z"/>
			<path class="st9" d="M1126.6,880.2c0-1.3,0.4-2.4,1.3-3.3c0.9-0.9,2-1.3,3.3-1.3c1.3,0,2.4,0.4,3.3,1.3c0.9,0.9,1.3,2,1.3,3.3
				c0,1.3-0.4,2.4-1.3,3.3s-2,1.3-3.3,1.3c-1.3,0-2.4-0.4-3.3-1.3C1127.1,882.6,1126.6,881.5,1126.6,880.2z"/>
			<path class="st9" d="M1154,880.2c0-1.3,0.4-2.4,1.3-3.3c0.9-0.9,2-1.3,3.3-1.3c1.3,0,2.4,0.4,3.3,1.3c0.9,0.9,1.3,2,1.3,3.3
				c0,1.3-0.4,2.4-1.3,3.3s-2,1.3-3.3,1.3c-1.3,0-2.4-0.4-3.3-1.3C1154.5,882.6,1154,881.5,1154,880.2z"/>
			<path class="st9" d="M1181.4,880.2c0-1.3,0.4-2.4,1.3-3.3c0.9-0.9,2-1.3,3.3-1.3c1.3,0,2.4,0.4,3.3,1.3c0.9,0.9,1.3,2,1.3,3.3
				c0,1.3-0.4,2.4-1.3,3.3s-2,1.3-3.3,1.3c-1.3,0-2.4-0.4-3.3-1.3C1181.9,882.6,1181.4,881.5,1181.4,880.2z"/>
		</g>
	</g>
	<path class="st10" d="M799.7,264.7c0,0,17.8-29.3,30.9-37.3c2-1.2,4.7-1.1,7.1,0.2l21,13.5c1.6,0.9,1.7,2.9,0.2,3.5L804,267.1
		C804,267.1,797.7,269.9,799.7,264.7z"/>
	<path class="st11" d="M811,199L791,249.6c0,0-1,8.8-8.2-0.2c-5.9-7.3-9.1-41.8-10.1-54c-0.2-2.5,1.8-4.6,4.7-4.7
		c7-0.5,20-0.8,29.9,2.4C810.2,193.9,811.9,196.7,811,199z"/>
	<path class="st12" d="M750,211.8c0.9-0.2,1.8,0.4,2,1.3l6.8,33.9c0,0,0.8,3.5-2,2.4c-2.4-0.9-18.2-16.3-22.9-20.9
		c-0.8-0.8-0.9-1.9-0.3-2.8C735.9,222.1,742.3,213.5,750,211.8z"/>
</g>
</svg>
